<svg xmlns="http://www.w3.org/2000/svg" width="24" height="24" viewBox="0 0 1024 1024" fill="none" stroke="black" stroke-width="40">
    <path d="M921.6 691.2c0 0-110.933-81.067-110.933-349.867 0-166.4-132.267-298.667-298.667-298.667s-298.667 132.267-298.667 298.667c0 268.8-106.667 349.867-110.933 349.867-17.067 8.533-21.333 29.867-17.067 46.933 8.533 17.067 25.6 29.867 42.667 29.867h768c17.067 0 34.133-12.8 38.4-29.867s0-38.4-12.8-46.933zM217.6 682.667c38.4-64 81.067-170.667 81.067-341.333 0-119.467 93.867-213.333 213.333-213.333s213.333 93.867 213.333 213.333c0 170.667 42.667 277.333 81.067 341.333h-588.8z M605.867 857.6c-21.333-12.8-46.933-4.267-59.733 17.067-4.267 8.533-17.067 17.067-25.6 21.333-12.8 4.267-21.333 0-34.133-4.267-8.533-4.267-12.8-8.533-17.067-17.067-12.8-21.333-38.4-25.6-59.733-17.067-21.333 12.8-25.6 38.4-17.067 59.733 12.8 21.333 25.6 34.133 46.933 46.933s42.667 17.067 64 17.067c12.8 0 21.333 0 34.133-4.267 34.133-8.533 59.733-29.867 76.8-59.733 21.333-21.333 12.8-46.933-8.533-59.733z"></path>
</svg>
