<svg xmlns="http://www.w3.org/2000/svg" xmlns:xlink="http://www.w3.org/1999/xlink" width="49" height="48" viewBox="0 0 49 48">
    <defs>
        <circle id="a" cx="24" cy="24" r="24"/>
        <path id="b" d="M32.687 12.845l14.75 16.335c-1.093 4.81-3.41 8.897-6.948 12.262-3.538 3.364-7.75 5.448-12.634 6.25L14.3 34.15l18.387-21.304z"/>
        <linearGradient id="c" x1="6.619%" x2="92.644%" y1="41.25%" y2="39.425%">
            <stop offset="0%" stop-color="#000000"/>
            <stop offset="100%" stop-color="#000000"/>
        </linearGradient>
        <linearGradient id="d" x1="7.266%" x2="97.551%" y1="78.992%" y2="78.992%">
            <stop offset="0%" stop-color="#000000"/>
            <stop offset="100%" stop-color="#000000"/>
        </linearGradient>
    </defs>
    <g fill="none" fill-rule="evenodd" transform="translate(.5)">
        <!-- Fondo azul oscuro #004E92 -->
        <circle cx="24" cy="24" r="24" fill="#004e92" />
        <!-- Sombra o figura original -->
        <use fill="#000000" xlink:href="#b"/>
        <path fill="url(#c)" d="M8.9 20.8C9.337 18.46 12.279 8.6 24 8.6s14.86 9.662 15.2 12.2c.902 6.715-3.811 12.89-10.526 13.79-.541.074-1.086.11-1.632.11h-6.595c-6.487 0-11.746-5.26-11.746-11.747 0-.722.067-1.443.199-2.153z"/>
        <circle cx="24" cy="24" r="14.1" fill="#FFB194"/>
        <circle cx="18.7" cy="25.2" r="1.3" fill="#000000"/>
        <circle cx="29.1" cy="25.2" r="1.3" fill="#000000"/>
        <path fill="#FFF" d="M23.985 32.062c1.883 0 3.461-1.37 3.584-3.185.01-.157-.043-.477-.359-.477h-6.45c-.309.013-.37.32-.359.477.12 1.814 1.701 3.185 3.584 3.185z"/>
        <path fill="url(#d)" d="M28.83 17.1c.573.356 1.078.65 1.516.881 2.39 1.264 6.645.53 6.645.53C34.851 13.45 29.977 9.8 24 9.8c-9.542 0-12.733 8.104-12.977 8.676 0 .016 4.962 1.76 12.284.534 2.12-.355 3.96-.992 5.523-1.91z"/>
        <path fill="#BFA12A" d="M20 38 L28 38 L24 44 Z" />
    </g>
</svg>
